<?xml version="1.0" encoding="UTF-8" standalone="no"?>
<svg
   xmlns:dc="http://purl.org/dc/elements/1.1/"
   xmlns:cc="http://creativecommons.org/ns#"
   xmlns:rdf="http://www.w3.org/1999/02/22-rdf-syntax-ns#"
   xmlns:svg="http://www.w3.org/2000/svg"
   xmlns="http://www.w3.org/2000/svg"
   xmlns:sodipodi="http://sodipodi.sourceforge.net/DTD/sodipodi-0.dtd"
   xmlns:inkscape="http://www.inkscape.org/namespaces/inkscape"
   xml:space="preserve"
   viewBox="0 0 337 100"
   y="0px"
   x="0px"
   id="Layer_1"
   version="1.1"
   sodipodi:docname="aion-logo-white.svg"
   width="337"
   height="100"
   inkscape:version="0.92.2 (5c3e80d, 2017-08-06)"><sodipodi:namedview
     pagecolor="#ffffff"
     bordercolor="#666666"
     borderopacity="1"
     objecttolerance="10"
     gridtolerance="10"
     guidetolerance="10"
     inkscape:pageopacity="0"
     inkscape:pageshadow="2"
     inkscape:window-width="640"
     inkscape:window-height="480"
     id="namedview10"
     showgrid="false"
     fit-margin-top="0"
     fit-margin-left="0"
     fit-margin-right="0"
     fit-margin-bottom="0"
     inkscape:zoom="0.2979798"
     inkscape:cx="145.7"
     inkscape:cy="43.900012"
     inkscape:window-x="0"
     inkscape:window-y="0"
     inkscape:window-maximized="0"
     inkscape:current-layer="Layer_1" /><metadata
     id="metadata3753"><rdf:RDF><cc:Work
         rdf:about=""><dc:format>image/svg+xml</dc:format><dc:type
           rdf:resource="http://purl.org/dc/dcmitype/StillImage" /><dc:title></dc:title></cc:Work></rdf:RDF></metadata><defs
     id="defs3751" /><g
     transform="matrix(1.1454754,0,0,1.1454754,-183.61971,-403.89463)"
     id="g3746"><path
       style="fill:#ffffff"
       id="path3738"
       d="m 412.4,353.6 h -0.5 c -0.4,0 -0.9,0 -1.3,0 h -31.3 l 0.1,49.3 v 0.9 c 0,5.7 0,12.9 0,19.5 v 0.6 c 0,5.3 0,10.1 0,13.3 v 1 h 12 v -1 c 0,-3.2 0,-8 0,-13.3 0,-9.3 0.1,-19.9 0,-26.1 v -32.3 h 19.4 0.2 c 0.2,0 0.4,0 0.6,0 h 0.8 c 16,0 30,15 30,32.1 0,11.5 0,19.8 0,26.6 v 0.5 c 0,4.7 0,8.7 0,12.6 v 1 h 12 v -1 c 0,-3.8 0,-7.8 0,-12.5 v -0.5 c 0,-6.8 0,-15.1 0,-26.6 0,-23.9 -19.2,-44.1 -42,-44.1 z"
       inkscape:connector-curvature="0" /><path
       id="rect3740"
       d="m 259.39999,353.5 h 12 v 85 h -12 z"
       style="fill:#ffffff"
       inkscape:connector-curvature="0" /><path
       style="fill:#ffffff"
       id="path3742"
       d="m 325.9,352.7 c -24,0 -43.6,19.6 -43.6,43.6 0,24 19.6,43.6 43.6,43.6 24,0 43.6,-19.6 43.6,-43.6 0,-24.1 -19.6,-43.6 -43.6,-43.6 z m 0,75.1 c -17.4,0 -31.6,-14.2 -31.6,-31.6 0,-17.4 14.2,-31.6 31.6,-31.6 17.4,0 31.6,14.2 31.6,31.6 0,17.4 -14.2,31.6 -31.6,31.6 z"
       inkscape:connector-curvature="0" /><path
       style="fill:#ffffff"
       id="path3744"
       d="m 246.5,423.7 v -0.6 c 0,-6.9 0,-15.1 0,-26.9 0,-24 -19.6,-43.6 -43.6,-43.6 -24.3,0 -42.6,18.3 -42.6,42.5 0,24 18.7,42.9 42.6,43.1 0.1,0 13.6,0 17.8,0 h 1 v -12 h -1 c -0.1,0 -17.4,0 -17.7,0 -17.2,-0.1 -30.7,-13.7 -30.7,-31.1 0,-17.4 13.1,-30.5 30.6,-30.5 17.4,0 31.6,14.2 31.6,31.6 0,11.9 0,20.3 0,27.2 v 0.2 c 0,5 0,9.2 0,13.6 v 1 h 12 v -1 c 0,-4.3 0,-8.6 0,-13.5 z"
       inkscape:connector-curvature="0" /></g></svg>